<svg width="267" height="61" viewBox="0 0 267 61" fill="none" xmlns="http://www.w3.org/2000/svg">
<path d="M79.28 22.624C80.24 22.624 80.912 22.8373 81.296 23.264C81.7013 23.6693 81.904 24.3307 81.904 25.248V48H78.032V28.896L72.176 40.224H69.808L64.144 29.024V48H60.592V22.624H62.768C63.472 22.624 63.984 22.7413 64.304 22.976C64.624 23.1893 64.9227 23.5947 65.2 24.192L71.248 35.776L78.064 22.624H79.28ZM106.517 48L105.077 41.632H95.3815L93.7495 48H90.0055L95.7975 26.592C96.0962 25.504 96.4055 24.672 96.7255 24.096C97.0455 23.4987 97.5042 23.0827 98.1015 22.848C98.6988 22.6133 99.5308 22.5067 100.597 22.528L104.565 22.624L110.549 48H106.517ZM99.3175 26.528L96.2455 38.176H104.309L101.525 26.08H99.7655C99.5095 26.08 99.3602 26.2293 99.3175 26.528ZM133.109 22.624H136.597V48H133.781L122.069 29.952V48H118.581V22.624H121.365L133.109 40.704V22.624ZM161.226 48L159.786 41.632H150.09L148.458 48H144.714L150.506 26.592C150.805 25.504 151.114 24.672 151.434 24.096C151.754 23.4987 152.213 23.0827 152.81 22.848C153.408 22.6133 154.24 22.5067 155.306 22.528L159.274 22.624L165.258 48H161.226ZM154.026 26.528L150.954 38.176H159.018L156.234 26.08H154.474C154.218 26.08 154.069 26.2293 154.026 26.528ZM178.826 48.288C176.885 48.288 175.445 47.8827 174.506 47.072C173.589 46.2613 173.13 44.9813 173.13 43.232V27.424C173.13 25.6533 173.589 24.3627 174.506 23.552C175.445 22.7413 176.885 22.336 178.826 22.336H189.706V25.952H177.642C177.365 25.952 177.226 26.0907 177.226 26.368V44.256C177.226 44.5333 177.365 44.672 177.642 44.672H185.834C186.133 44.672 186.282 44.5333 186.282 44.256V37.792H182.25V34.4H190.186V43.232C190.186 44.9813 189.717 46.2613 188.778 47.072C187.839 47.8827 186.399 48.288 184.458 48.288H178.826ZM200.04 48V22.624H214.408V26.112H204.072V33.408H213.704V36.864H204.072V44.512H214.632V48H200.04Z" fill="#F9DFF6"/>
<path d="M236.916 48V22.624H240.948V48H236.916ZM255.703 48V26.112H249.527V22.624H265.879V26.112H259.735V48H255.703Z" fill="#FF8D28"/>
<path d="M38 19H19V38H0V0H38V19Z" fill="#D2D2D2"/>
<path d="M48 38.5C48 43.7467 43.7467 48 38.5 48V48C33.2533 48 29 43.7467 29 38.5V38.5C29 33.2533 33.2533 29 38.5 29V29C43.7467 29 48 33.2533 48 38.5V38.5Z" fill="#FF8D28"/>
</svg>
